<mxfile host="app.diagrams.net" modified="2024-05-02T07:23:22.143Z" agent="Mozilla/5.0 (Windows NT 10.0; Win64; x64) AppleWebKit/537.36 (KHTML, like Gecko) Chrome/124.0.0.0 Safari/537.36 Edg/124.0.0.0" etag="rt6YqCcLq3gCg7YhBDKx" version="24.3.1" type="github">
  <diagram id="R2lEEEUBdFMjLlhIrx00" name="Page-1">
    <mxGraphModel dx="1737" dy="948" grid="1" gridSize="10" guides="1" tooltips="1" connect="1" arrows="1" fold="1" page="1" pageScale="1" pageWidth="850" pageHeight="1100" math="0" shadow="0" extFonts="Permanent Marker^https://fonts.googleapis.com/css?family=Permanent+Marker">
      <root>
        <mxCell id="0" />
        <mxCell id="1" parent="0" />
        <mxCell id="zs_2XHd3fXxwtxxHCt0B-1" style="edgeStyle=none;curved=1;rounded=0;orthogonalLoop=1;jettySize=auto;html=1;entryX=0.5;entryY=1;entryDx=0;entryDy=0;fontSize=12;startSize=8;endSize=8;" edge="1" parent="1" source="zs_2XHd3fXxwtxxHCt0B-2" target="zs_2XHd3fXxwtxxHCt0B-7">
          <mxGeometry relative="1" as="geometry" />
        </mxCell>
        <mxCell id="zs_2XHd3fXxwtxxHCt0B-2" value="" style="ellipse;html=1;shape=startState;fillColor=#000000;strokeColor=#ff0000;" vertex="1" parent="1">
          <mxGeometry x="410" y="50" width="30" height="30" as="geometry" />
        </mxCell>
        <mxCell id="zs_2XHd3fXxwtxxHCt0B-3" style="edgeStyle=none;curved=1;rounded=0;orthogonalLoop=1;jettySize=auto;html=1;fontSize=12;startSize=8;endSize=8;" edge="1" parent="1" source="zs_2XHd3fXxwtxxHCt0B-4" target="zs_2XHd3fXxwtxxHCt0B-15">
          <mxGeometry relative="1" as="geometry" />
        </mxCell>
        <mxCell id="zs_2XHd3fXxwtxxHCt0B-4" value="&lt;font style=&quot;font-size: 16px;&quot;&gt;Жү&lt;/font&gt;&lt;span style=&quot;font-size: 16px; background-color: initial;&quot;&gt;йеге кіру&lt;/span&gt;" style="html=1;whiteSpace=wrap;fillColor=none;" vertex="1" parent="1">
          <mxGeometry x="190" y="190" width="110" height="50" as="geometry" />
        </mxCell>
        <mxCell id="zs_2XHd3fXxwtxxHCt0B-5" style="edgeStyle=none;curved=1;rounded=0;orthogonalLoop=1;jettySize=auto;html=1;entryX=0.5;entryY=0;entryDx=0;entryDy=0;fontSize=12;startSize=8;endSize=8;" edge="1" parent="1" source="zs_2XHd3fXxwtxxHCt0B-7" target="zs_2XHd3fXxwtxxHCt0B-4">
          <mxGeometry relative="1" as="geometry" />
        </mxCell>
        <mxCell id="zs_2XHd3fXxwtxxHCt0B-6" style="edgeStyle=none;curved=1;rounded=0;orthogonalLoop=1;jettySize=auto;html=1;fontSize=12;startSize=8;endSize=8;" edge="1" parent="1" source="zs_2XHd3fXxwtxxHCt0B-7" target="zs_2XHd3fXxwtxxHCt0B-9">
          <mxGeometry relative="1" as="geometry" />
        </mxCell>
        <mxCell id="zs_2XHd3fXxwtxxHCt0B-7" value="&lt;font style=&quot;font-size: 14px;&quot;&gt;Жүйеге тіркелген бе?&lt;/font&gt;" style="html=1;whiteSpace=wrap;" vertex="1" parent="1">
          <mxGeometry x="370" y="120" width="110" height="50" as="geometry" />
        </mxCell>
        <mxCell id="zs_2XHd3fXxwtxxHCt0B-8" style="edgeStyle=none;curved=1;rounded=0;orthogonalLoop=1;jettySize=auto;html=1;fontSize=12;startSize=8;endSize=8;" edge="1" parent="1" source="zs_2XHd3fXxwtxxHCt0B-9" target="zs_2XHd3fXxwtxxHCt0B-11">
          <mxGeometry relative="1" as="geometry" />
        </mxCell>
        <mxCell id="zs_2XHd3fXxwtxxHCt0B-9" value="&lt;font style=&quot;font-size: 16px;&quot;&gt;Жүйеге тіркелу&lt;/font&gt;" style="html=1;whiteSpace=wrap;" vertex="1" parent="1">
          <mxGeometry x="580" y="190" width="110" height="50" as="geometry" />
        </mxCell>
        <mxCell id="zs_2XHd3fXxwtxxHCt0B-10" style="edgeStyle=none;curved=1;rounded=0;orthogonalLoop=1;jettySize=auto;html=1;fontSize=12;startSize=8;endSize=8;" edge="1" parent="1" source="zs_2XHd3fXxwtxxHCt0B-11" target="zs_2XHd3fXxwtxxHCt0B-13">
          <mxGeometry relative="1" as="geometry" />
        </mxCell>
        <mxCell id="zs_2XHd3fXxwtxxHCt0B-11" value="&lt;font style=&quot;font-size: 14px;&quot;&gt;Тіркелу формасын толтыру&lt;/font&gt;" style="html=1;whiteSpace=wrap;" vertex="1" parent="1">
          <mxGeometry x="580" y="276" width="110" height="50" as="geometry" />
        </mxCell>
        <mxCell id="zs_2XHd3fXxwtxxHCt0B-12" style="edgeStyle=none;curved=1;rounded=0;orthogonalLoop=1;jettySize=auto;html=1;fontSize=12;startSize=8;endSize=8;" edge="1" parent="1" source="zs_2XHd3fXxwtxxHCt0B-13" target="zs_2XHd3fXxwtxxHCt0B-4">
          <mxGeometry relative="1" as="geometry" />
        </mxCell>
        <mxCell id="zs_2XHd3fXxwtxxHCt0B-13" value="&lt;font style=&quot;font-size: 14px;&quot;&gt;Тіркелу батырмасы&lt;/font&gt;" style="html=1;whiteSpace=wrap;" vertex="1" parent="1">
          <mxGeometry x="580" y="370" width="110" height="50" as="geometry" />
        </mxCell>
        <mxCell id="zs_2XHd3fXxwtxxHCt0B-14" style="edgeStyle=none;curved=1;rounded=0;orthogonalLoop=1;jettySize=auto;html=1;fontSize=12;startSize=8;endSize=8;" edge="1" parent="1" source="zs_2XHd3fXxwtxxHCt0B-15" target="zs_2XHd3fXxwtxxHCt0B-18">
          <mxGeometry relative="1" as="geometry" />
        </mxCell>
        <mxCell id="zs_2XHd3fXxwtxxHCt0B-15" value="&lt;font style=&quot;font-size: 14px;&quot;&gt;Кіру формасын толтыру&lt;/font&gt;" style="html=1;whiteSpace=wrap;" vertex="1" parent="1">
          <mxGeometry x="190" y="276" width="110" height="50" as="geometry" />
        </mxCell>
        <mxCell id="zs_2XHd3fXxwtxxHCt0B-16" style="edgeStyle=none;curved=1;rounded=0;orthogonalLoop=1;jettySize=auto;html=1;fontSize=12;startSize=8;endSize=8;" edge="1" parent="1" source="zs_2XHd3fXxwtxxHCt0B-18">
          <mxGeometry relative="1" as="geometry">
            <mxPoint x="160" y="421" as="targetPoint" />
          </mxGeometry>
        </mxCell>
        <mxCell id="zs_2XHd3fXxwtxxHCt0B-17" style="edgeStyle=none;curved=1;rounded=0;orthogonalLoop=1;jettySize=auto;html=1;fontSize=12;startSize=8;endSize=8;" edge="1" parent="1" source="zs_2XHd3fXxwtxxHCt0B-18">
          <mxGeometry relative="1" as="geometry">
            <mxPoint x="355" y="425" as="targetPoint" />
          </mxGeometry>
        </mxCell>
        <mxCell id="zs_2XHd3fXxwtxxHCt0B-18" value="&lt;font style=&quot;font-size: 13px;&quot;&gt;Деректерді тексеру процесі&lt;/font&gt;" style="html=1;whiteSpace=wrap;" vertex="1" parent="1">
          <mxGeometry x="190" y="360" width="110" height="50" as="geometry" />
        </mxCell>
        <mxCell id="zs_2XHd3fXxwtxxHCt0B-19" value="иә" style="text;strokeColor=none;align=center;fillColor=none;html=1;verticalAlign=middle;whiteSpace=wrap;rounded=0;fontSize=16;" vertex="1" parent="1">
          <mxGeometry x="280" y="140" width="60" height="30" as="geometry" />
        </mxCell>
        <mxCell id="zs_2XHd3fXxwtxxHCt0B-20" value="жоқ" style="text;strokeColor=none;align=center;fillColor=none;html=1;verticalAlign=middle;whiteSpace=wrap;rounded=0;fontSize=16;" vertex="1" parent="1">
          <mxGeometry x="500" y="140" width="60" height="30" as="geometry" />
        </mxCell>
        <mxCell id="zs_2XHd3fXxwtxxHCt0B-22" value="&lt;font style=&quot;font-size: 14px;&quot;&gt;Деректерді қайтадан енгізеді&lt;/font&gt;" style="html=1;whiteSpace=wrap;" vertex="1" parent="1">
          <mxGeometry x="50" y="420" width="110" height="50" as="geometry" />
        </mxCell>
        <mxCell id="zs_2XHd3fXxwtxxHCt0B-24" style="edgeStyle=none;curved=1;rounded=0;orthogonalLoop=1;jettySize=auto;html=1;exitX=0;exitY=0.5;exitDx=0;exitDy=0;fontSize=12;startSize=8;endSize=8;" edge="1" parent="1">
          <mxGeometry relative="1" as="geometry">
            <mxPoint x="355" y="525" as="sourcePoint" />
            <mxPoint x="355" y="525" as="targetPoint" />
          </mxGeometry>
        </mxCell>
        <mxCell id="zs_2XHd3fXxwtxxHCt0B-25" style="edgeStyle=none;curved=1;rounded=0;orthogonalLoop=1;jettySize=auto;html=1;fontSize=12;startSize=8;endSize=8;" edge="1" parent="1" source="zs_2XHd3fXxwtxxHCt0B-26">
          <mxGeometry relative="1" as="geometry">
            <mxPoint x="410" y="500" as="targetPoint" />
          </mxGeometry>
        </mxCell>
        <mxCell id="zs_2XHd3fXxwtxxHCt0B-29" style="edgeStyle=orthogonalEdgeStyle;rounded=0;orthogonalLoop=1;jettySize=auto;html=1;" edge="1" parent="1" source="zs_2XHd3fXxwtxxHCt0B-26" target="zs_2XHd3fXxwtxxHCt0B-27">
          <mxGeometry relative="1" as="geometry" />
        </mxCell>
        <mxCell id="zs_2XHd3fXxwtxxHCt0B-35" style="edgeStyle=orthogonalEdgeStyle;rounded=0;orthogonalLoop=1;jettySize=auto;html=1;" edge="1" parent="1" source="zs_2XHd3fXxwtxxHCt0B-26" target="zs_2XHd3fXxwtxxHCt0B-34">
          <mxGeometry relative="1" as="geometry" />
        </mxCell>
        <mxCell id="zs_2XHd3fXxwtxxHCt0B-26" value="&lt;font style=&quot;font-size: 15px;&quot;&gt;Жүйеге кіреді&lt;/font&gt;" style="html=1;whiteSpace=wrap;" vertex="1" parent="1">
          <mxGeometry x="355" y="420" width="110" height="50" as="geometry" />
        </mxCell>
        <mxCell id="zs_2XHd3fXxwtxxHCt0B-31" style="edgeStyle=orthogonalEdgeStyle;rounded=0;orthogonalLoop=1;jettySize=auto;html=1;" edge="1" parent="1" source="zs_2XHd3fXxwtxxHCt0B-27" target="zs_2XHd3fXxwtxxHCt0B-30">
          <mxGeometry relative="1" as="geometry" />
        </mxCell>
        <mxCell id="zs_2XHd3fXxwtxxHCt0B-27" value="&lt;font style=&quot;font-size: 15px;&quot;&gt;Тапсырыстар бөліміне кіру&lt;/font&gt;" style="rounded=0;whiteSpace=wrap;html=1;" vertex="1" parent="1">
          <mxGeometry x="350" y="500" width="120" height="60" as="geometry" />
        </mxCell>
        <mxCell id="zs_2XHd3fXxwtxxHCt0B-33" style="edgeStyle=orthogonalEdgeStyle;rounded=0;orthogonalLoop=1;jettySize=auto;html=1;" edge="1" parent="1">
          <mxGeometry relative="1" as="geometry">
            <mxPoint x="409" y="670" as="sourcePoint" />
            <mxPoint x="414" y="700" as="targetPoint" />
          </mxGeometry>
        </mxCell>
        <mxCell id="zs_2XHd3fXxwtxxHCt0B-30" value="Барлық тапсырыс туралы ақпарат(клиент аты жөні, тапсырыс сомасы)" style="rounded=0;whiteSpace=wrap;html=1;" vertex="1" parent="1">
          <mxGeometry x="340" y="600" width="140" height="70" as="geometry" />
        </mxCell>
        <mxCell id="zs_2XHd3fXxwtxxHCt0B-44" style="edgeStyle=orthogonalEdgeStyle;rounded=0;orthogonalLoop=1;jettySize=auto;html=1;" edge="1" parent="1" source="zs_2XHd3fXxwtxxHCt0B-32" target="zs_2XHd3fXxwtxxHCt0B-43">
          <mxGeometry relative="1" as="geometry" />
        </mxCell>
        <mxCell id="zs_2XHd3fXxwtxxHCt0B-32" value="&lt;font style=&quot;font-size: 13px;&quot;&gt;Тапсырыс туралы есепті сақтап Excel форматта сақтап алу&amp;nbsp;&lt;/font&gt;" style="rounded=0;whiteSpace=wrap;html=1;" vertex="1" parent="1">
          <mxGeometry x="348" y="700" width="130" height="70" as="geometry" />
        </mxCell>
        <mxCell id="zs_2XHd3fXxwtxxHCt0B-37" style="edgeStyle=orthogonalEdgeStyle;rounded=0;orthogonalLoop=1;jettySize=auto;html=1;" edge="1" parent="1" source="zs_2XHd3fXxwtxxHCt0B-34" target="zs_2XHd3fXxwtxxHCt0B-36">
          <mxGeometry relative="1" as="geometry" />
        </mxCell>
        <mxCell id="zs_2XHd3fXxwtxxHCt0B-34" value="&lt;font style=&quot;font-size: 14px;&quot;&gt;Telegram мессенджеріне кіреді&lt;/font&gt;" style="rounded=0;whiteSpace=wrap;html=1;" vertex="1" parent="1">
          <mxGeometry x="560" y="470" width="120" height="60" as="geometry" />
        </mxCell>
        <mxCell id="zs_2XHd3fXxwtxxHCt0B-40" style="edgeStyle=orthogonalEdgeStyle;rounded=0;orthogonalLoop=1;jettySize=auto;html=1;" edge="1" parent="1" source="zs_2XHd3fXxwtxxHCt0B-36" target="zs_2XHd3fXxwtxxHCt0B-39">
          <mxGeometry relative="1" as="geometry" />
        </mxCell>
        <mxCell id="zs_2XHd3fXxwtxxHCt0B-36" value="&lt;font style=&quot;font-size: 13px;&quot;&gt;Жаңа түскен тапсырыс туралы ақпарат алады&lt;/font&gt;" style="rounded=0;whiteSpace=wrap;html=1;" vertex="1" parent="1">
          <mxGeometry x="560" y="560" width="120" height="60" as="geometry" />
        </mxCell>
        <mxCell id="zs_2XHd3fXxwtxxHCt0B-39" value="&lt;font style=&quot;font-size: 13px;&quot;&gt;Тапсырысты өңдеу үшін клиентпен байланысады&lt;/font&gt;" style="rounded=0;whiteSpace=wrap;html=1;" vertex="1" parent="1">
          <mxGeometry x="560" y="650" width="120" height="60" as="geometry" />
        </mxCell>
        <mxCell id="zs_2XHd3fXxwtxxHCt0B-41" value="дұрыс" style="text;html=1;align=center;verticalAlign=middle;whiteSpace=wrap;rounded=0;" vertex="1" parent="1">
          <mxGeometry x="305" y="380" width="60" height="30" as="geometry" />
        </mxCell>
        <mxCell id="zs_2XHd3fXxwtxxHCt0B-42" value="бұрыс" style="text;html=1;align=center;verticalAlign=middle;whiteSpace=wrap;rounded=0;" vertex="1" parent="1">
          <mxGeometry x="130" y="380" width="60" height="30" as="geometry" />
        </mxCell>
        <mxCell id="zs_2XHd3fXxwtxxHCt0B-43" value="" style="ellipse;html=1;shape=endState;fillColor=#000000;strokeColor=#ff0000;" vertex="1" parent="1">
          <mxGeometry x="398" y="820" width="30" height="30" as="geometry" />
        </mxCell>
      </root>
    </mxGraphModel>
  </diagram>
</mxfile>
